<svg width="25" height="25" viewBox="0 0 25 25" fill="none" xmlns="http://www.w3.org/2000/svg">
<path d="M22.9165 17.625V20.75C22.9177 21.0401 22.8582 21.3273 22.742 21.5931C22.6258 21.8589 22.4553 22.0975 22.2416 22.2936C22.0278 22.4897 21.7754 22.6391 21.5006 22.732C21.2258 22.8249 20.9346 22.8595 20.6457 22.8334C17.4403 22.4851 14.3613 21.3898 11.6561 19.6354C9.13923 18.0361 7.00539 15.9023 5.40608 13.3854C3.64564 10.6679 2.55008 7.57397 2.20816 4.35419C2.18213 4.06613 2.21636 3.77581 2.30868 3.50171C2.401 3.22761 2.54938 2.97574 2.74438 2.76212C2.93937 2.54851 3.17671 2.37784 3.44128 2.26098C3.70585 2.14412 3.99185 2.08363 4.28108 2.08335H7.40608C7.91161 2.07838 8.40169 2.25739 8.785 2.58703C9.1683 2.91667 9.41866 3.37444 9.48941 3.87502C9.62131 4.87509 9.86592 5.85703 10.2186 6.8021C10.3587 7.17494 10.3891 7.58014 10.306 7.96969C10.2229 8.35923 10.0299 8.7168 9.74983 9.00002L8.42691 10.3229C9.90978 12.9308 12.0691 15.0901 14.6769 16.5729L15.9998 15.25C16.283 14.97 16.6406 14.7769 17.0302 14.6939C17.4197 14.6108 17.8249 14.6411 18.1977 14.7813C19.1428 15.1339 20.1248 15.3785 21.1248 15.5104C21.6308 15.5818 22.093 15.8367 22.4233 16.2266C22.7536 16.6165 22.9292 17.1142 22.9165 17.625Z" fill="#246BFD"/>
</svg>
