<svg width="48" height="46" viewBox="0 0 48 46" fill="none" xmlns="http://www.w3.org/2000/svg">
<path d="M45.9999 36.4167C45.9999 37.4333 45.5785 38.4084 44.8283 39.1272C44.0782 39.8461 43.0608 40.25 41.9999 40.25H5.99999C4.93913 40.25 3.92171 39.8461 3.17157 39.1272C2.42143 38.4084 2 37.4333 2 36.4167V15.3333C2 14.3167 2.42143 13.3416 3.17157 12.6228C3.92171 11.9039 4.93913 11.5 5.99999 11.5H14L18 5.75H29.9999L33.9999 11.5H41.9999C43.0608 11.5 44.0782 11.9039 44.8283 12.6228C45.5785 13.3416 45.9999 14.3167 45.9999 15.3333V36.4167Z" stroke="#246BFD" stroke-width="2" stroke-linecap="round" stroke-linejoin="round"/>
<path d="M24 32.5833C28.4183 32.5833 32 29.1508 32 24.9167C32 20.6825 28.4183 17.25 24 17.25C19.5817 17.25 16 20.6825 16 24.9167C16 29.1508 19.5817 32.5833 24 32.5833Z" stroke="#246BFD" stroke-width="2" stroke-linecap="round" stroke-linejoin="round"/>
</svg>
