 <svg
          width="25"
          height="26"
          viewBox="0 0 40 41"
          fill="none"
          xmlns="http://www.w3.org/2000/svg"
        >
          <path
            d="M35 25.5C35 26.3841 34.6488 27.2319 34.0237 27.857C33.3986 28.4821 32.5507 28.8333 31.6667 28.8333H11.6667L5 35.5V8.83333C5 7.94928 5.35119 7.10143 5.97631 6.47631C6.60143 5.85119 7.44928 5.5 8.33333 5.5H31.6667C32.5507 5.5 33.3986 5.85119 34.0237 6.47631C34.6488 7.10143 35 7.94928 35 8.83333V25.5Z"
            stroke="#939393"
            stroke-width="4"
            stroke-linecap="round"
            stroke-linejoin="round"
          />
          <circle cx="14.9999" cy="17.1667" r="1.66667" fill="#939393" />
          <circle cx="14.9999" cy="17.1667" r="1.66667" fill="#939393" />
          <circle cx="14.9999" cy="17.1667" r="1.66667" fill="#939393" />
          <circle cx="19.9999" cy="17.1667" r="1.66667" fill="#939393" />
          <circle cx="19.9999" cy="17.1667" r="1.66667" fill="#939393" />
          <circle cx="19.9999" cy="17.1667" r="1.66667" fill="#939393" />
          <circle cx="24.9999" cy="17.1667" r="1.66667" fill="#939393" />
          <circle cx="24.9999" cy="17.1667" r="1.66667" fill="#939393" />
          <circle cx="24.9999" cy="17.1667" r="1.66667" fill="#939393" />
        </svg>