<svg width="25" height="25" viewBox="0 0 25 25" fill="none" xmlns="http://www.w3.org/2000/svg">
<g clip-path="url(#clip0_518_629)">
<path d="M21.0148 5.41879C20.5194 4.92279 19.9311 4.52932 19.2837 4.26087C18.6363 3.99242 17.9423 3.85425 17.2415 3.85425C16.5407 3.85425 15.8467 3.99242 15.1993 4.26087C14.5519 4.52932 13.9636 4.92279 13.4682 5.41879L12.44 6.4477L11.4118 5.41879C10.4111 4.41736 9.05376 3.85477 7.6385 3.85477C6.22324 3.85477 4.86594 4.41736 3.8652 5.41879C2.86446 6.42022 2.30225 7.77845 2.30225 9.19469C2.30225 10.6109 2.86446 11.9692 3.8652 12.9706L4.8934 13.9995L12.44 21.5513L19.9866 13.9995L21.0148 12.9706C21.5105 12.4748 21.9037 11.8862 22.1719 11.2383C22.4402 10.5904 22.5783 9.89598 22.5783 9.19469C22.5783 8.49339 22.4402 7.79897 22.1719 7.15109C21.9037 6.50321 21.5105 5.91457 21.0148 5.41879Z" fill="#246BFD" stroke="#246BFD" stroke-width="4" stroke-linecap="round" stroke-linejoin="round"/>
</g>
<defs>
<clipPath id="clip0_518_629">
<rect width="23.28" height="23.296" fill="white" transform="translate(0.800049 0.944031)"/>
</clipPath>
</defs>
</svg>
