<svg width="48" height="46" viewBox="0 0 48 46" fill="none" xmlns="http://www.w3.org/2000/svg">
<path d="M20 24.9167C20.8589 26.0171 21.9547 26.9276 23.2131 27.5865C24.4715 28.2454 25.863 28.6372 27.2933 28.7353C28.7236 28.8335 30.1592 28.6357 31.5027 28.1554C32.8462 27.6751 34.0663 26.9236 35.08 25.9517L41.08 20.2017C42.9016 18.3942 43.9096 15.9735 43.8868 13.4608C43.864 10.948 42.8123 8.54441 40.9582 6.76759C39.1041 4.99076 36.596 3.98289 33.974 3.96106C31.3521 3.93922 28.826 4.90517 26.94 6.65085L23.5 9.92835" stroke="#246BFD" stroke-width="2" stroke-linecap="round" stroke-linejoin="round"/>
<path d="M28.0001 21.0834C27.1412 19.9829 26.0454 19.0724 24.787 18.4136C23.5286 17.7547 22.137 17.3629 20.7068 17.2647C19.2765 17.1666 17.8409 17.3643 16.4974 17.8446C15.1538 18.3249 13.9338 19.0765 12.92 20.0484L6.92004 25.7984C5.09845 27.6058 4.09051 30.0266 4.11329 32.5393C4.13608 35.052 5.18777 37.4556 7.04185 39.2325C8.89594 41.0093 11.4041 42.0171 14.026 42.039C16.648 42.0608 19.174 41.0949 21.0601 39.3492L24.4801 36.0717" stroke="#246BFD" stroke-width="2" stroke-linecap="round" stroke-linejoin="round"/>
</svg>
