<svg width="34" height="28" viewBox="0 0 34 28" fill="none" xmlns="http://www.w3.org/2000/svg">
<path d="M13.6805 0.58309L0.333252 13.9998L13.6805 27.4164C13.801 27.5747 13.9542 27.7053 14.1295 27.7992C14.3049 27.8932 14.4985 27.9484 14.697 27.961C14.8956 27.9737 15.0946 27.9436 15.2805 27.8727C15.4664 27.8018 15.6349 27.6917 15.7745 27.55C15.9142 27.4083 16.0218 27.2383 16.0901 27.0514C16.1583 26.8645 16.1856 26.6651 16.1701 26.4668C16.1546 26.2684 16.0967 26.0757 16.0002 25.9016C15.9038 25.7276 15.771 25.5764 15.611 25.4581L5.62492 15.3886L32.1944 15.3886C32.5627 15.3886 32.916 15.2423 33.1765 14.9819C33.4369 14.7214 33.5833 14.3681 33.5833 13.9998C33.5833 13.6314 33.4369 13.2781 33.1765 13.0177C32.916 12.7572 32.5627 12.6109 32.1944 12.6109L5.62492 12.6109L15.611 2.54142C15.8707 2.27989 16.0159 1.92591 16.0146 1.55734C16.0133 1.18878 15.8656 0.835835 15.6041 0.576143C15.3426 0.316452 14.9886 0.171291 14.62 0.172594C14.2514 0.173897 13.8985 0.321556 13.6388 0.58309H13.6805Z" fill="#222222"/>
</svg>
