<svg width="16" height="22" viewBox="0 0 16 22" fill="none" xmlns="http://www.w3.org/2000/svg">
<path d="M0.642046 22V0.181818H8.26989C9.78977 0.181818 11.0433 0.444602 12.0305 0.970171C13.0178 1.48864 13.7528 2.18821 14.2358 3.06889C14.7188 3.94247 14.9602 4.91193 14.9602 5.97727C14.9602 6.91477 14.7933 7.68892 14.4595 8.29972C14.1328 8.91051 13.6996 9.39347 13.1598 9.74858C12.6271 10.1037 12.0483 10.3665 11.4233 10.5369V10.75C12.0909 10.7926 12.7621 11.027 13.4368 11.4531C14.1115 11.8793 14.6761 12.4901 15.1307 13.2855C15.5852 14.081 15.8125 15.054 15.8125 16.2045C15.8125 17.2983 15.5639 18.282 15.0668 19.1555C14.5696 20.0291 13.7848 20.7216 12.7124 21.233C11.6399 21.7443 10.2443 22 8.52557 22H0.642046ZM3.28409 19.6562H8.52557C10.2514 19.6562 11.4766 19.3224 12.201 18.6548C12.9325 17.9801 13.2983 17.1634 13.2983 16.2045C13.2983 15.4659 13.1101 14.7841 12.7337 14.1591C12.3572 13.527 11.821 13.0227 11.125 12.6463C10.429 12.2628 9.60511 12.071 8.65341 12.071H3.28409V19.6562ZM3.28409 9.76989H8.18466C8.98011 9.76989 9.69744 9.61364 10.3366 9.30114C10.983 8.98864 11.4943 8.5483 11.8707 7.98011C12.2543 7.41193 12.446 6.74432 12.446 5.97727C12.446 5.01847 12.1122 4.20526 11.4446 3.53764C10.777 2.86293 9.71875 2.52557 8.26989 2.52557H3.28409V9.76989Z" fill="#141414"/>
</svg>
