<svg width="28" height="28" viewBox="0 0 28 28" fill="none" xmlns="http://www.w3.org/2000/svg">
<path d="M7.55998 10.2977L3.11717 14L7.55998 17.7024C7.65081 17.7751 7.72623 17.8652 7.78182 17.9674C7.83741 18.0696 7.87206 18.1819 7.88374 18.2976C7.89541 18.4134 7.88389 18.5303 7.84983 18.6416C7.81577 18.7528 7.75987 18.8562 7.68539 18.9456C7.61091 19.035 7.51936 19.1086 7.41608 19.1622C7.3128 19.2157 7.19987 19.2482 7.0839 19.2576C6.96793 19.267 6.85125 19.2532 6.74069 19.217C6.63012 19.1807 6.52789 19.1228 6.43998 19.0466L1.18998 14.6716C1.09147 14.5895 1.01221 14.4867 0.957826 14.3706C0.903437 14.2544 0.875244 14.1277 0.875244 13.9995C0.875244 13.8712 0.903437 13.7446 0.957826 13.6284C1.01221 13.5123 1.09147 13.4095 1.18998 13.3274L6.43998 8.95237C6.61838 8.80385 6.84847 8.73228 7.07964 8.75341C7.31081 8.77454 7.52412 8.88663 7.67264 9.06503C7.82116 9.24343 7.89273 9.47352 7.8716 9.70469C7.85047 9.93586 7.73838 10.1492 7.55998 10.2977ZM26.81 13.3274L21.56 8.95237C21.4716 8.87883 21.3697 8.82341 21.2599 8.78927C21.1502 8.75513 21.0348 8.74295 20.9203 8.75341C20.8059 8.76387 20.6946 8.79677 20.5928 8.85024C20.4911 8.90371 20.4009 8.97669 20.3273 9.06503C20.1788 9.24343 20.1072 9.47352 20.1284 9.70469C20.1495 9.93586 20.2616 10.1492 20.44 10.2977L24.8828 14L20.44 17.7024C20.3492 17.7751 20.2737 17.8652 20.2181 17.9674C20.1626 18.0696 20.1279 18.1819 20.1162 18.2976C20.1046 18.4134 20.1161 18.5303 20.1501 18.6416C20.1842 18.7528 20.2401 18.8562 20.3146 18.9456C20.389 19.035 20.4806 19.1086 20.5839 19.1622C20.6872 19.2157 20.8001 19.2482 20.9161 19.2576C21.032 19.267 21.1487 19.2532 21.2593 19.217C21.3698 19.1807 21.4721 19.1228 21.56 19.0466L26.81 14.6716C26.9085 14.5895 26.9877 14.4867 27.0421 14.3706C27.0965 14.2544 27.1247 14.1277 27.1247 13.9995C27.1247 13.8712 27.0965 13.7446 27.0421 13.6284C26.9877 13.5123 26.9085 13.4095 26.81 13.3274ZM17.7986 3.55253C17.6906 3.51331 17.5759 3.49576 17.4611 3.50086C17.3463 3.50597 17.2336 3.53364 17.1295 3.58229C17.0254 3.63094 16.9319 3.69962 16.8544 3.7844C16.7768 3.86919 16.7167 3.96842 16.6775 4.07644L9.67748 23.3264C9.6381 23.4345 9.62041 23.5493 9.62544 23.6642C9.63046 23.7791 9.65809 23.8919 9.70675 23.9962C9.75541 24.1004 9.82415 24.194 9.90902 24.2716C9.9939 24.3493 10.0932 24.4094 10.2014 24.4486C10.2972 24.4827 10.3982 24.5001 10.5 24.5C10.6797 24.5 10.855 24.4447 11.0022 24.3416C11.1493 24.2385 11.2612 24.0925 11.3225 23.9236L18.3225 4.67362C18.3617 4.56561 18.3793 4.45093 18.3741 4.33614C18.369 4.22134 18.3414 4.10867 18.2927 4.00457C18.2441 3.90046 18.1754 3.80696 18.0906 3.7294C18.0058 3.65184 17.9066 3.59174 17.7986 3.55253Z" fill="#141414"/>
</svg>
