<svg width="80" height="80" viewBox="0 0 80 80" fill="none" xmlns="http://www.w3.org/2000/svg">
<path d="M63.3333 10H16.6667C12.9848 10 10 12.9848 10 16.6667V63.3333C10 67.0152 12.9848 70 16.6667 70H63.3333C67.0152 70 70 67.0152 70 63.3333V16.6667C70 12.9848 67.0152 10 63.3333 10Z" stroke="black" stroke-width="5" stroke-linecap="round" stroke-linejoin="round"/>
<path d="M28.3333 33.3335C31.0947 33.3335 33.3333 31.0949 33.3333 28.3335C33.3333 25.5721 31.0947 23.3335 28.3333 23.3335C25.5718 23.3335 23.3333 25.5721 23.3333 28.3335C23.3333 31.0949 25.5718 33.3335 28.3333 33.3335Z" stroke="black" stroke-width="5" stroke-linecap="round" stroke-linejoin="round"/>
<path d="M70.0001 50.0002L53.3334 33.3335L16.6667 70.0002" stroke="black" stroke-width="5" stroke-linecap="round" stroke-linejoin="round"/>
</svg>
