<svg width="12" height="12" viewBox="0 0 12 12" fill="none" xmlns="http://www.w3.org/2000/svg">
<g clip-path="url(#clip0_1570_247)">
<path d="M9.97247 3.67546C9.98545 3.66789 9.99621 3.65705 10.0037 3.64403C10.0112 3.631 10.0151 3.61625 10.0151 3.60123C10.0151 3.58621 10.0112 3.57145 10.0037 3.55843C9.99621 3.5454 9.98545 3.53457 9.97247 3.527L6.69095 1.62048C6.48098 1.49877 6.2426 1.43468 5.99991 1.43468C5.75722 1.43468 5.51883 1.49877 5.30886 1.62048L2.02798 3.527C2.01501 3.53457 2.00425 3.5454 1.99677 3.55843C1.98929 3.57145 1.98535 3.58621 1.98535 3.60123C1.98535 3.61625 1.98929 3.631 1.99677 3.64403C2.00425 3.65705 2.01501 3.66789 2.02798 3.67546L5.95704 5.98675C5.97026 5.99453 5.98532 5.99863 6.00066 5.99863C6.016 5.99863 6.03105 5.99453 6.04427 5.98675L9.97247 3.67546Z" fill="#2D3748"/>
<path d="M1.66016 4.25976C1.64705 4.25219 1.63218 4.24822 1.61705 4.24825C1.60192 4.24827 1.58706 4.25229 1.57398 4.2599C1.5609 4.26751 1.55006 4.27843 1.54256 4.29158C1.53505 4.30472 1.53115 4.31961 1.53125 4.33474V8.07066C1.53158 8.25069 1.57903 8.4275 1.66888 8.58351C1.75874 8.73951 1.88787 8.86928 2.04344 8.95989L5.52735 11.0488C5.5404 11.0564 5.55521 11.0603 5.57029 11.0603C5.58537 11.0603 5.60018 11.0564 5.61325 11.0488C5.62631 11.0413 5.63716 11.0305 5.64471 11.0174C5.65225 11.0044 5.65624 10.9896 5.65625 10.9745V6.64001C5.65624 6.62494 5.65226 6.61014 5.64472 6.59709C5.63717 6.58405 5.62633 6.57321 5.61328 6.56568L1.66016 4.25976Z" fill="#2D3748"/>
<path d="M6.34375 6.65508V10.9734C6.34377 10.9885 6.34775 11.0033 6.3553 11.0164C6.36285 11.0294 6.3737 11.0403 6.38676 11.0478C6.39982 11.0553 6.41463 11.0593 6.42971 11.0593C6.44479 11.0593 6.4596 11.0553 6.47266 11.0478L9.95635 8.95885C10.1118 8.86835 10.2409 8.73877 10.3308 8.58296C10.4206 8.42716 10.4682 8.25055 10.4687 8.07068V4.33477C10.4687 4.31971 10.4647 4.30492 10.4571 4.2919C10.4496 4.27888 10.4387 4.26807 10.4256 4.26057C10.4126 4.25306 10.3978 4.24912 10.3827 4.24913C10.3677 4.24914 10.3529 4.25311 10.3398 4.26064L6.38672 6.58096C6.3737 6.58847 6.36288 6.59927 6.35534 6.61228C6.3478 6.62529 6.3438 6.64004 6.34375 6.65508Z" fill="#2D3748"/>
</g>
<defs>
<clipPath id="clip0_1570_247">
<rect width="11" height="11" fill="white" transform="translate(0.5 0.747635)"/>
</clipPath>
</defs>
</svg>
