<svg width="30" height="17" viewBox="0 0 30 17" fill="none" xmlns="http://www.w3.org/2000/svg">
<path d="M27.4949 1.3148L14.9999 13.4948L2.50495 1.3148C2.2817 1.09674 1.98201 0.974668 1.66995 0.974668C1.35788 0.974668 1.05819 1.09674 0.834946 1.3148C0.726852 1.42071 0.640977 1.54713 0.582352 1.68664C0.523727 1.82616 0.49353 1.97597 0.49353 2.1273C0.49353 2.27863 0.523727 2.42844 0.582352 2.56796C0.640977 2.70747 0.726852 2.83389 0.834946 2.9398L14.1274 15.8998C14.3609 16.1273 14.674 16.2547 14.9999 16.2547C15.3259 16.2547 15.639 16.1273 15.8724 15.8998L29.1649 2.9423C29.2738 2.83631 29.3603 2.70959 29.4194 2.56961C29.4785 2.42963 29.5089 2.27923 29.5089 2.1273C29.5089 1.97537 29.4785 1.82497 29.4194 1.68499C29.3603 1.54501 29.2738 1.41829 29.1649 1.3123C28.9417 1.09424 28.642 0.972168 28.3299 0.972168C28.0179 0.972168 27.7182 1.09424 27.4949 1.3123V1.3148Z" fill="#222222"/>
</svg>
