<svg width="40" height="41" viewBox="0 0 40 41" fill="none" xmlns="http://www.w3.org/2000/svg">
<path d="M23.9648 5.25874C24.326 4.89749 24.7549 4.61093 25.2269 4.41543C25.6989 4.21992 26.2048 4.11929 26.7157 4.11929C27.2265 4.11929 27.7324 4.21992 28.2044 4.41543C28.6764 4.61093 29.1053 4.89749 29.4665 5.25874C29.8278 5.61999 30.1143 6.04886 30.3098 6.52085C30.5054 6.99285 30.606 7.49873 30.606 8.00961C30.606 8.5205 30.5054 9.02638 30.3098 9.49837C30.1143 9.97037 29.8278 10.3992 29.4665 10.7605L10.8981 29.3289L3.33325 31.392L5.39641 23.8271L23.9648 5.25874Z" stroke="#246BFD" stroke-width="2" stroke-linecap="round" stroke-linejoin="round"/>
</svg>
