 <svg
          width="25"
          height="26"
          viewBox="0 0 40 41"
          fill="none"
          xmlns="http://www.w3.org/2000/svg"
        >
          <g clip-path="url(#clip0_392_156)">
            <path
              d="M35 17.1667C35 28.8334 20 38.8334 20 38.8334C20 38.8334 5 28.8334 5 17.1667C5 13.1884 6.58035 9.37313 9.3934 6.56009C12.2064 3.74704 16.0218 2.16669 20 2.16669C23.9782 2.16669 27.7936 3.74704 30.6066 6.56009C33.4196 9.37313 35 13.1884 35 17.1667Z"
              stroke="#939393"
              stroke-width="4"
              stroke-linecap="round"
              stroke-linejoin="round"
            />
            <path
              d="M20 22.1667C22.7614 22.1667 25 19.9281 25 17.1667C25 14.4053 22.7614 12.1667 20 12.1667C17.2386 12.1667 15 14.4053 15 17.1667C15 19.9281 17.2386 22.1667 20 22.1667Z"
              stroke="#939393"
              stroke-width="4"
              stroke-linecap="round"
              stroke-linejoin="round"
            />
          </g>
          <defs>
            <clipPath id="clip0_392_156">
              <rect
                width="40"
                height="40"
                fill="white"
                transform="translate(0 0.5)"
              />
            </clipPath>
          </defs>
        </svg>