<svg
          width="25"
          height="26"
          viewBox="0 0 40 41"
          fill="none"
          xmlns="http://www.w3.org/2000/svg"
        >
          <path
            d="M34.7335 8.18332C33.8822 7.33166 32.8715 6.65607 31.759 6.19513C30.6466 5.73419 29.4543 5.49695 28.2501 5.49695C27.046 5.49695 25.8536 5.73419 24.7412 6.19513C23.6288 6.65607 22.618 7.33166 21.7668 8.18332L20.0001 9.94999L18.2335 8.18332C16.514 6.46384 14.1818 5.49784 11.7501 5.49784C9.3184 5.49784 6.98627 6.46384 5.26678 8.18332C3.5473 9.90281 2.5813 12.2349 2.5813 14.6667C2.5813 17.0984 3.5473 19.4305 5.26678 21.15L7.03345 22.9167L20.0001 35.8833L32.9668 22.9167L34.7335 21.15C35.5851 20.2987 36.2607 19.288 36.7216 18.1756C37.1826 17.0632 37.4198 15.8708 37.4198 14.6667C37.4198 13.4625 37.1826 12.2702 36.7216 11.1577C36.2607 10.0453 35.5851 9.03458 34.7335 8.18332Z"
            stroke="#939393"
            stroke-width="4"
            stroke-linecap="round"
            stroke-linejoin="round"
          />
        </svg>