<svg width="20" height="20" viewBox="0 0 20 20" fill="none" xmlns="http://www.w3.org/2000/svg">
<g clip-path="url(#clip0_538_70)">
<path d="M7.91406 15C7.91406 13.6193 6.79477 12.5 5.41406 12.5C4.03335 12.5 2.91406 13.6193 2.91406 15C2.91406 16.3807 4.03335 17.5 5.41406 17.5C6.79477 17.5 7.91406 16.3807 7.91406 15Z" stroke="#343434" stroke-width="2" stroke-linecap="round" stroke-linejoin="round"/>
<path d="M9.58105 15H19.5811" stroke="#343434" stroke-width="2" stroke-linecap="round" stroke-linejoin="round"/>
<path d="M14.5811 5C14.5811 6.38071 15.7003 7.5 17.0811 7.5C18.4618 7.5 19.5811 6.38071 19.5811 5C19.5811 3.61929 18.4618 2.5 17.0811 2.5C15.7003 2.5 14.5811 3.61929 14.5811 5Z" stroke="#343434" stroke-width="2" stroke-linecap="round" stroke-linejoin="round"/>
<path d="M2.91406 5L12.9141 5" stroke="#343434" stroke-width="2" stroke-linecap="round" stroke-linejoin="round"/>
</g>
<defs>
<clipPath id="clip0_538_70">
<rect width="20" height="20" fill="white" transform="matrix(0 -1 1 0 0 20)"/>
</clipPath>
</defs>
</svg>
