<svg width="30" height="30" viewBox="0 0 30 30" fill="none" xmlns="http://www.w3.org/2000/svg">
<g clip-path="url(#clip0_519_1512)">
<path d="M26.0501 5.76252C25.4117 5.12378 24.6537 4.61708 23.8193 4.27138C22.985 3.92568 22.0908 3.74774 21.1876 3.74774C20.2845 3.74774 19.3903 3.92568 18.556 4.27138C17.7216 4.61708 16.9636 5.12378 16.3251 5.76252L15.0001 7.08752L13.6751 5.76252C12.3855 4.47291 10.6364 3.74841 8.81265 3.74841C6.98886 3.74841 5.23976 4.47291 3.95015 5.76252C2.66053 7.05214 1.93604 8.80123 1.93604 10.625C1.93604 12.4488 2.66053 14.1979 3.95015 15.4875L5.27515 16.8125L15.0001 26.5375L24.7251 16.8125L26.0501 15.4875C26.6889 14.8491 27.1956 14.091 27.5413 13.2567C27.887 12.4224 28.0649 11.5281 28.0649 10.625C28.0649 9.72191 27.887 8.82765 27.5413 7.99333C27.1956 7.15901 26.6889 6.40097 26.0501 5.76252Z" stroke="white" stroke-width="4" stroke-linecap="round" stroke-linejoin="round"/>
</g>
<defs>
<clipPath id="clip0_519_1512">
<rect width="30" height="30" fill="white"/>
</clipPath>
</defs>
</svg>
