<svg width="25" height="25" viewBox="0 0 25 25" fill="none" xmlns="http://www.w3.org/2000/svg">
<path d="M21.0148 5.41878C20.5194 4.92277 19.9311 4.5293 19.2837 4.26085C18.6363 3.9924 17.9423 3.85423 17.2415 3.85423C16.5407 3.85423 15.8467 3.9924 15.1993 4.26085C14.5519 4.5293 13.9636 4.92277 13.4682 5.41878L12.44 6.44768L11.4118 5.41878C10.4111 4.41735 9.05376 3.85475 7.6385 3.85475C6.22324 3.85475 4.86594 4.41735 3.8652 5.41878C2.86446 6.42021 2.30225 7.77844 2.30225 9.19467C2.30225 10.6109 2.86446 11.9691 3.8652 12.9706L4.8934 13.9995L12.44 21.5513L19.9866 13.9995L21.0148 12.9706C21.5105 12.4748 21.9037 11.8861 22.1719 11.2383C22.4402 10.5904 22.5783 9.89597 22.5783 9.19467C22.5783 8.49338 22.4402 7.79895 22.1719 7.15107C21.9037 6.50319 21.5105 5.91455 21.0148 5.41878Z" stroke="#246BFD" stroke-width="2" stroke-linecap="round" stroke-linejoin="round"/>
</svg>
