<svg width="25" height="24" viewBox="0 0 25 24" fill="none" xmlns="http://www.w3.org/2000/svg">
<path opacity="0.4" d="M12.4912 18.6217L5.99945 21.8643C5.50921 22.1304 4.89768 21.9527 4.62348 21.4645C4.5434 21.311 4.50106 21.1404 4.5 20.967V13.709C4.5 14.4286 4.90573 14.8728 5.97299 15.3702L12.4912 18.6217Z" fill="#8A92A6"/>
<path fill-rule="evenodd" clip-rule="evenodd" d="M9.39526 2H15.5695C18.2773 2 20.4735 3.06605 20.5 5.79337V20.9668C20.4989 21.1374 20.4565 21.3051 20.3765 21.4554C20.2479 21.7007 20.0259 21.8827 19.7615 21.9598C19.497 22.0368 19.2128 22.0023 18.9741 21.8641L12.4912 18.6215L5.97299 15.3701C4.90573 14.8726 4.5 14.4284 4.5 13.7088V5.79337C4.5 3.06605 6.69625 2 9.39526 2ZM8.72492 9.62227H16.2486C16.6822 9.62227 17.0336 9.26828 17.0336 8.83162C17.0336 8.39495 16.6822 8.04096 16.2486 8.04096H8.72492C8.29137 8.04096 7.93991 8.39495 7.93991 8.83162C7.93991 9.26828 8.29137 9.62227 8.72492 9.62227Z" fill="#8A92A6"/>
</svg>
