<svg width="41" height="41" viewBox="0 0 41 41" fill="none" xmlns="http://www.w3.org/2000/svg">
<path d="M20.7364 22.591C21.6568 22.591 22.403 21.8448 22.403 20.9243C22.403 20.0038 21.6568 19.2576 20.7364 19.2576C19.8159 19.2576 19.0697 20.0038 19.0697 20.9243C19.0697 21.8448 19.8159 22.591 20.7364 22.591Z" stroke="#343434" stroke-width="2" stroke-linecap="round" stroke-linejoin="round"/>
<path d="M20.7364 10.9243C21.6568 10.9243 22.403 10.1781 22.403 9.25767C22.403 8.3372 21.6568 7.591 20.7364 7.591C19.8159 7.591 19.0697 8.3372 19.0697 9.25767C19.0697 10.1781 19.8159 10.9243 20.7364 10.9243Z" stroke="#343434" stroke-width="2" stroke-linecap="round" stroke-linejoin="round"/>
<path d="M20.7364 34.2576C21.6568 34.2576 22.403 33.5115 22.403 32.591C22.403 31.6705 21.6568 30.9243 20.7364 30.9243C19.8159 30.9243 19.0697 31.6705 19.0697 32.591C19.0697 33.5115 19.8159 34.2576 20.7364 34.2576Z" stroke="#343434" stroke-width="2" stroke-linecap="round" stroke-linejoin="round"/>
</svg>
