<svg width="12" height="12" viewBox="0 0 12 12" fill="none" xmlns="http://www.w3.org/2000/svg">
<g clip-path="url(#clip0_1570_239)">
<path d="M7.64658 2.13493C7.2285 1.68354 6.64455 1.43497 6.00002 1.43497C5.35205 1.43497 4.76617 1.68204 4.35002 2.13063C3.92936 2.58417 3.7244 3.20055 3.77252 3.86614C3.86791 5.17926 4.86715 6.24747 6.00002 6.24747C7.13289 6.24747 8.13041 5.17948 8.2273 3.86657C8.27607 3.207 8.06982 2.5919 7.64658 2.13493Z" fill="#2D3748"/>
<path d="M9.78137 11.0595H2.21887C2.11989 11.0608 2.02186 11.04 1.93192 10.9986C1.84198 10.9572 1.76239 10.8963 1.69895 10.8204C1.5593 10.6534 1.50301 10.4255 1.54469 10.1949C1.72602 9.18905 2.29192 8.34407 3.18137 7.75088C3.97157 7.2243 4.97252 6.93448 6.00012 6.93448C7.02772 6.93448 8.02867 7.22452 8.81887 7.75088C9.70832 8.34385 10.2742 9.18883 10.4555 10.1947C10.4972 10.4253 10.4409 10.6532 10.3013 10.8201C10.2379 10.8962 10.1583 10.9571 10.0684 10.9985C9.97841 11.0399 9.88037 11.0607 9.78137 11.0595V11.0595Z" fill="#2D3748"/>
</g>
<defs>
<clipPath id="clip0_1570_239">
<rect width="11" height="11" fill="white" transform="translate(0.5 0.747635)"/>
</clipPath>
</defs>
</svg>
