<svg width="25" height="24" viewBox="0 0 25 24" fill="none" xmlns="http://www.w3.org/2000/svg">
<path opacity="0.4" d="M22.5 12C22.5 17.524 18.023 22 12.5 22C6.977 22 2.5 17.524 2.5 12C2.5 6.478 6.977 2 12.5 2C18.023 2 22.5 6.478 22.5 12Z" fill="#8A92A6"/>
<path fill-rule="evenodd" clip-rule="evenodd" d="M13.3701 12.6309C13.3701 13.1129 12.9771 13.5059 12.4951 13.5059C12.0131 13.5059 11.6201 13.1129 11.6201 12.6309V8.21094C11.6201 7.72894 12.0131 7.33594 12.4951 7.33594C12.9771 7.33594 13.3701 7.72894 13.3701 8.21094V12.6309ZM11.6251 15.8037C11.6251 15.3217 12.0161 14.9287 12.4951 14.9287C12.9881 14.9287 13.3801 15.3217 13.3801 15.8037C13.3801 16.2857 12.9881 16.6787 12.5051 16.6787C12.0201 16.6787 11.6251 16.2857 11.6251 15.8037Z" fill="#8A92A6"/>
</svg>
