<svg width="11" height="12" viewBox="0 0 11 12" fill="none" xmlns="http://www.w3.org/2000/svg">
<path d="M5.5 1.77837C3.03596 1.77837 1.03125 3.78307 1.03125 6.24712C1.03125 8.71116 3.03596 10.7159 5.5 10.7159C7.96404 10.7159 9.96875 8.71116 9.96875 6.24712C9.96875 3.78307 7.96404 1.77837 5.5 1.77837ZM4.42105 4.28817C4.69326 3.99964 5.07633 3.84087 5.5 3.84087C5.92367 3.84087 6.3033 4.00071 6.57658 4.29075C6.85351 4.58465 6.98822 4.97954 6.95643 5.40407C6.89283 6.24712 6.23971 6.93462 5.5 6.93462C4.76029 6.93462 4.10588 6.24712 4.04357 5.40385C4.01199 4.97589 4.14648 4.57971 4.42105 4.28817ZM5.5 10.0284C4.99522 10.0287 4.49551 9.92766 4.0305 9.73126C3.5655 9.53485 3.14467 9.24706 2.79297 8.88497C2.9944 8.59771 3.25105 8.35348 3.54793 8.16653C4.09557 7.81547 4.78865 7.62212 5.5 7.62212C6.21135 7.62212 6.90443 7.81547 7.45143 8.16653C7.74855 8.35339 8.00543 8.59763 8.20703 8.88497C7.85536 9.2471 7.43454 9.53491 6.96953 9.73132C6.50451 9.92774 6.00479 10.0287 5.5 10.0284Z" fill="#2D3748"/>
</svg>
