<svg width="12" height="12" viewBox="0 0 12 12" fill="none" xmlns="http://www.w3.org/2000/svg">
<path d="M5.18623 4.33956C5.18623 4.61886 5.18623 4.88956 5.27432 5.14307C4.34834 6.23018 1.90342 9.10264 1.67568 9.32178C1.63042 9.36239 1.59421 9.41208 1.56941 9.4676C1.54461 9.52312 1.53178 9.58324 1.53174 9.64405C1.53174 9.82667 1.64346 10.0028 1.73799 10.1017C1.87979 10.2499 2.48564 10.8107 2.59736 10.7032C2.92822 10.381 2.99482 10.295 3.13018 10.1618C3.33428 9.96202 3.10869 9.55382 3.17959 9.38839C3.25049 9.22296 3.32568 9.19073 3.44814 9.16495C3.57061 9.13917 3.7876 9.22725 3.95732 9.2294C4.13564 9.23155 4.23232 9.15635 4.36553 9.03175C4.47295 8.93292 4.55029 8.84053 4.55244 8.69659C4.55674 8.50323 4.27744 8.24757 4.48584 8.04346C4.69424 7.83936 4.99502 8.17667 5.21631 8.15089C5.4376 8.12511 5.70615 7.81788 5.73408 7.68682C5.76201 7.55577 5.48271 7.21846 5.52568 7.02725C5.54072 6.9628 5.67178 6.81241 5.77061 6.79093C5.86943 6.76944 6.30771 6.93917 6.40654 6.91768C6.52685 6.8919 6.6665 6.76514 6.78037 6.69425C7.11338 6.83819 7.41631 6.8962 7.80518 6.8962C9.27685 6.8962 10.4692 5.74893 10.4692 4.33526C10.4692 2.92159 9.27685 1.77927 7.80518 1.77927C6.3335 1.77927 5.18623 2.92589 5.18623 4.33956ZM9.09424 3.84177C9.09424 3.97774 9.05392 4.11066 8.97837 4.22372C8.90283 4.33678 8.79546 4.4249 8.66983 4.47693C8.54421 4.52897 8.40597 4.54258 8.27261 4.51606C8.13925 4.48953 8.01675 4.42405 7.9206 4.3279C7.82445 4.23175 7.75898 4.10925 7.73245 3.97589C7.70592 3.84253 7.71954 3.7043 7.77157 3.57867C7.82361 3.45305 7.91172 3.34567 8.02478 3.27013C8.13784 3.19459 8.27076 3.15427 8.40674 3.15427C8.58907 3.15427 8.76394 3.2267 8.89287 3.35563C9.0218 3.48456 9.09424 3.65943 9.09424 3.84177Z" fill="#2D3748"/>
</svg>
