<svg width="23" height="31" viewBox="0 0 23 31" fill="none" xmlns="http://www.w3.org/2000/svg">
<path d="M16.9602 0.181818H19.6023V14.6278C19.6023 16.1193 19.2507 17.451 18.5476 18.6229C17.8516 19.7876 16.8679 20.7074 15.5966 21.3821C14.3253 22.0497 12.8338 22.3835 11.1222 22.3835C9.41051 22.3835 7.91903 22.0497 6.64773 21.3821C5.37642 20.7074 4.3892 19.7876 3.68608 18.6229C2.99006 17.451 2.64205 16.1193 2.64205 14.6278V0.181818H5.28409V14.4148C5.28409 15.4801 5.51847 16.4283 5.98722 17.2592C6.45597 18.0831 7.12358 18.733 7.99006 19.2088C8.86364 19.6776 9.90767 19.9119 11.1222 19.9119C12.3366 19.9119 13.3807 19.6776 14.2543 19.2088C15.1278 18.733 15.7955 18.0831 16.2571 17.2592C16.7259 16.4283 16.9602 15.4801 16.9602 14.4148V0.181818Z" fill="#141414"/>
<path d="M0 27.9659H22.2443V30.0114H0V27.9659Z" fill="#141414"/>
</svg>
