<svg width="23" height="16" viewBox="0 0 23 16" fill="none" xmlns="http://www.w3.org/2000/svg">
<path d="M11.4488 10.54C7.99884 10.54 5.08789 11.1038 5.08789 13.2795C5.08789 15.4562 8.01765 16.0001 11.4488 16.0001C14.8988 16.0001 17.8098 15.4364 17.8098 13.2606C17.8098 11.084 14.88 10.54 11.4488 10.54Z" fill="#8A92A6"/>
<path opacity="0.4" d="M11.449 8.46703C13.7851 8.46703 15.6583 6.58307 15.6583 4.23351C15.6583 1.88306 13.7851 0 11.449 0C9.11293 0 7.23975 1.88306 7.23975 4.23351C7.23975 6.58307 9.11293 8.46703 11.449 8.46703Z" fill="#8A92A6"/>
<path opacity="0.4" d="M20.5881 5.21923C21.1925 2.84176 19.4205 0.706543 17.164 0.706543C16.9187 0.706543 16.6841 0.73356 16.4549 0.779488C16.4244 0.786692 16.3904 0.802002 16.3725 0.829019C16.3519 0.86324 16.3671 0.909168 16.3895 0.938886C17.0673 1.89528 17.4568 3.0597 17.4568 4.30967C17.4568 5.50741 17.0996 6.6241 16.4728 7.55077C16.4083 7.64623 16.4656 7.77501 16.5793 7.79482C16.7369 7.82274 16.8981 7.83715 17.0629 7.84165C18.7059 7.88488 20.1807 6.82132 20.5881 5.21923Z" fill="#8A92A6"/>
<path d="M22.3094 10.817C22.0086 10.1722 21.2824 9.72999 20.1783 9.51295C19.6572 9.38507 18.247 9.20496 16.9352 9.22928C16.9155 9.23198 16.9048 9.24549 16.903 9.25449C16.9003 9.2671 16.9057 9.28871 16.9316 9.30222C17.5378 9.60391 19.8811 10.916 19.5865 13.6834C19.574 13.8032 19.6698 13.9068 19.7888 13.8888C20.3655 13.8059 21.8492 13.4853 22.3094 12.4866C22.5637 11.9589 22.5637 11.3456 22.3094 10.817Z" fill="#8A92A6"/>
<path opacity="0.4" d="M6.54459 0.779976C6.31626 0.733147 6.08077 0.707031 5.83543 0.707031C3.57901 0.707031 1.80701 2.84225 2.4123 5.21972C2.81882 6.82181 4.29355 7.88536 5.93661 7.84214C6.10136 7.83763 6.26343 7.82232 6.42013 7.79531C6.53384 7.7755 6.59115 7.64672 6.52668 7.55126C5.8999 6.62368 5.54263 5.5079 5.54263 4.31016C5.54263 3.05928 5.93303 1.89486 6.61085 0.939375C6.63234 0.909656 6.64845 0.863728 6.62696 0.829507C6.60906 0.80159 6.57593 0.787181 6.54459 0.779976Z" fill="#8A92A6"/>
<path d="M2.82156 9.5127C1.71752 9.72973 0.992248 10.1719 0.691392 10.8167C0.436203 11.3453 0.436203 11.9586 0.691392 12.4872C1.15163 13.4851 2.63531 13.8066 3.21195 13.8885C3.33104 13.9065 3.42595 13.8038 3.41342 13.6832C3.11883 10.9167 5.4621 9.60456 6.06918 9.30287C6.09425 9.28846 6.09962 9.26775 6.09694 9.25424C6.09515 9.24523 6.0853 9.23173 6.0656 9.22992C4.75294 9.20471 3.34358 9.38482 2.82156 9.5127Z" fill="#8A92A6"/>
</svg>
